<svg
  width="24"
  height="24"
  viewBox="0 0 24 24"
  xmlns="http://www.w3.org/2000/svg"
>
  <path
    fill-rule="evenodd"
    clip-rule="evenodd"
    d="M12 0C5.37258 0 0 5.37258 0 12C0 18.6274 5.37258 24 12 24C18.6274 24 24 18.6274 24 12C24 5.37258 18.6274 0 12 0ZM14.7825 4.89034L6.87817 11.2891C6.58518 11.5263 6.75289 12 7.12985 12H10.7998C10.8688 12 10.9171 12.0682 10.8941 12.1333L8.5886 18.6656C8.45432 19.0461 8.90388 19.3635 9.21747 19.1097L17.1218 12.7109C17.4148 12.4737 17.2471 12 16.8702 12H13.2002C13.1312 12 13.0829 11.9318 13.1059 11.8667L15.4114 5.33436C15.5457 4.95389 15.0961 4.63647 14.7825 4.89034Z"
  />
</svg>
